<mxfile host="app.diagrams.net" agent="Mozilla/5.0 (Windows NT 10.0; Win64; x64) AppleWebKit/537.36 (KHTML, like Gecko) Chrome/133.0.0.0 Safari/537.36 Edg/133.0.0.0" version="26.0.16">
  <diagram name="Page-1" id="Cz39aBTm2e5IdMvBnq_a">
    <mxGraphModel dx="1042" dy="578" grid="1" gridSize="10" guides="1" tooltips="1" connect="1" arrows="1" fold="1" page="1" pageScale="1" pageWidth="850" pageHeight="1100" math="0" shadow="0">
      <root>
        <mxCell id="0" />
        <mxCell id="1" parent="0" />
        <mxCell id="J_od48V6ICS7nhq_06Tz-18" value="" style="rounded=0;whiteSpace=wrap;html=1;" parent="1" vertex="1">
          <mxGeometry x="454" y="440" width="236" height="160" as="geometry" />
        </mxCell>
        <mxCell id="J_od48V6ICS7nhq_06Tz-17" value="" style="rounded=0;whiteSpace=wrap;html=1;" parent="1" vertex="1">
          <mxGeometry x="200.5" y="80" width="239.5" height="320" as="geometry" />
        </mxCell>
        <mxCell id="J_od48V6ICS7nhq_06Tz-1" value="Client" style="shape=umlActor;verticalLabelPosition=bottom;verticalAlign=top;html=1;outlineConnect=0;" parent="1" vertex="1">
          <mxGeometry x="80" y="203.5" width="30" height="60" as="geometry" />
        </mxCell>
        <mxCell id="J_od48V6ICS7nhq_06Tz-2" value="nginx" style="sketch=0;pointerEvents=1;shadow=0;dashed=0;html=1;strokeColor=none;fillColor=#505050;labelPosition=center;verticalLabelPosition=bottom;verticalAlign=top;outlineConnect=0;align=center;shape=mxgraph.office.servers.reverse_proxy;" parent="1" vertex="1">
          <mxGeometry x="240" y="207" width="41" height="53" as="geometry" />
        </mxCell>
        <mxCell id="J_od48V6ICS7nhq_06Tz-5" value="FastAPI" style="image;aspect=fixed;html=1;points=[];align=center;fontSize=12;image=img/lib/azure2/other/Worker_Container_App.svg;" parent="1" vertex="1">
          <mxGeometry x="320" y="203.5" width="61.82" height="60" as="geometry" />
        </mxCell>
        <mxCell id="J_od48V6ICS7nhq_06Tz-6" value="FastAPI" style="image;aspect=fixed;html=1;points=[];align=center;fontSize=12;image=img/lib/azure2/other/Worker_Container_App.svg;" parent="1" vertex="1">
          <mxGeometry x="320" y="286" width="61.82" height="60" as="geometry" />
        </mxCell>
        <mxCell id="J_od48V6ICS7nhq_06Tz-7" value="Data service" style="image;aspect=fixed;html=1;points=[];align=center;fontSize=12;image=img/lib/azure2/other/Worker_Container_App.svg;labelPosition=center;verticalLabelPosition=top;verticalAlign=bottom;" parent="1" vertex="1">
          <mxGeometry x="593" y="200.5" width="68" height="66" as="geometry" />
        </mxCell>
        <mxCell id="J_od48V6ICS7nhq_06Tz-8" value="RabbitMQ" style="shape=image;verticalLabelPosition=bottom;labelBackgroundColor=#ffffff;verticalAlign=top;aspect=fixed;imageAspect=0;image=data:image/svg+xml,PHN2ZyB4bWxuczpkYz0iaHR0cDovL3B1cmwub3JnL2RjL2VsZW1lbnRzLzEuMS8iIHhtbG5zOmNjPSJodHRwOi8vY3JlYXRpdmVjb21tb25zLm9yZy9ucyMiIHhtbG5zOnJkZj0iaHR0cDovL3d3dy53My5vcmcvMTk5OS8wMi8yMi1yZGYtc3ludGF4LW5zIyIgeG1sbnM6c3ZnPSJodHRwOi8vd3d3LnczLm9yZy8yMDAwL3N2ZyIgeG1sbnM9Imh0dHA6Ly93d3cudzMub3JnLzIwMDAvc3ZnIiB4bWxuczp4bGluaz0iaHR0cDovL3d3dy53My5vcmcvMTk5OS94bGluayIgeG1sbnM6c29kaXBvZGk9Imh0dHA6Ly9zb2RpcG9kaS5zb3VyY2Vmb3JnZS5uZXQvRFREL3NvZGlwb2RpLTAuZHRkIiB4bWxuczppbmtzY2FwZT0iaHR0cDovL3d3dy5pbmtzY2FwZS5vcmcvbmFtZXNwYWNlcy9pbmtzY2FwZSIgdmVyc2lvbj0iMS4xIiBpZD0iTGF5ZXJfMSIgeD0iMHB4IiB5PSIwcHgiIHZpZXdCb3g9IjAgMCAzNS45Mzk5OTUgMzUuOTUwMDAxIiB4bWw6c3BhY2U9InByZXNlcnZlIiBzb2RpcG9kaTpkb2NuYW1lPSJzYXBfc2VfcmFiYml0bXEuc3ZnIiB3aWR0aD0iMzUuOTM5OTk1IiBoZWlnaHQ9IjM1Ljk1MDAwMSIgaW5rc2NhcGU6dmVyc2lvbj0iMC45Mi4zICgyNDA1NTQ2LCAyMDE4LTAzLTExKSI+PG1ldGFkYXRhIGlkPSJtZXRhZGF0YTYwODc3Ij48cmRmOlJERj48Y2M6V29yayByZGY6YWJvdXQ9IiI+PGRjOmZvcm1hdD5pbWFnZS9zdmcreG1sPC9kYzpmb3JtYXQ+PGRjOnR5cGUgcmRmOnJlc291cmNlPSJodHRwOi8vcHVybC5vcmcvZGMvZGNtaXR5cGUvU3RpbGxJbWFnZSIvPjxkYzp0aXRsZS8+PC9jYzpXb3JrPjwvcmRmOlJERj48L21ldGFkYXRhPjxkZWZzIGlkPSJkZWZzNjA4NzUiLz48c29kaXBvZGk6bmFtZWR2aWV3IHBhZ2Vjb2xvcj0iI2ZmZmZmZiIgYm9yZGVyY29sb3I9IiM2NjY2NjYiIGJvcmRlcm9wYWNpdHk9IjEiIG9iamVjdHRvbGVyYW5jZT0iMTAiIGdyaWR0b2xlcmFuY2U9IjEwIiBndWlkZXRvbGVyYW5jZT0iMTAiIGlua3NjYXBlOnBhZ2VvcGFjaXR5PSIwIiBpbmtzY2FwZTpwYWdlc2hhZG93PSIyIiBpbmtzY2FwZTp3aW5kb3ctd2lkdGg9IjE5MjAiIGlua3NjYXBlOndpbmRvdy1oZWlnaHQ9IjEwMTciIGlkPSJuYW1lZHZpZXc2MDg3MyIgc2hvd2dyaWQ9ImZhbHNlIiBmaXQtbWFyZ2luLXRvcD0iMCIgZml0LW1hcmdpbi1sZWZ0PSIwIiBmaXQtbWFyZ2luLXJpZ2h0PSIwIiBmaXQtbWFyZ2luLWJvdHRvbT0iMCIgaW5rc2NhcGU6em9vbT0iMS4wMzAzMDMiIGlua3NjYXBlOmN4PSItMjUuMjI1MDA2IiBpbmtzY2FwZTpjeT0iLTE5Mi4wNCIgaW5rc2NhcGU6d2luZG93LXg9Ii04IiBpbmtzY2FwZTp3aW5kb3cteT0iLTgiIGlua3NjYXBlOndpbmRvdy1tYXhpbWl6ZWQ9IjEiIGlua3NjYXBlOmN1cnJlbnQtbGF5ZXI9IkxheWVyXzEiLz4mI3hhOyYjeGE7PGcgaWQ9Imc2MDg3MCIgdHJhbnNmb3JtPSJ0cmFuc2xhdGUoLTMyMi42MDAwMSwtMTkyLjc2KSI+JiN4YTsJPGRlZnMgaWQ9ImRlZnM2MDg1NSI+JiN4YTsJCTxyZWN0IGlkPSJTVkdJRF8zXyIgeD0iMzIyLjYwMDAxIiB5PSIxOTIuNzU5OTkiIHdpZHRoPSIzNi44MiIgaGVpZ2h0PSIzNi44MiIvPiYjeGE7CTwvZGVmcz4mI3hhOwk8Y2xpcFBhdGggaWQ9IlNWR0lEXzRfIj4mI3hhOwkJPHVzZSB4bGluazpocmVmPSIjU1ZHSURfM18iIHN0eWxlPSJvdmVyZmxvdzp2aXNpYmxlIiBpZD0idXNlNjA4NTciIHg9IjAiIHk9IjAiIHdpZHRoPSIxMDAlIiBoZWlnaHQ9IjEwMCUiLz4mI3hhOwk8L2NsaXBQYXRoPiYjeGE7CTxnIGNsaXAtcGF0aD0idXJsKCNTVkdJRF80XykiIGlkPSJnNjA4NjgiPiYjeGE7CQk8ZGVmcyBpZD0iZGVmczYwODYxIj4mI3hhOwkJCTxyZWN0IGlkPSJTVkdJRF81XyIgeD0iMzIyLjYwMDAxIiB5PSIxOTIuNzU5OTkiIHdpZHRoPSIzNi44MiIgaGVpZ2h0PSIzNi44MiIvPiYjeGE7CQk8L2RlZnM+JiN4YTsJCTxjbGlwUGF0aCBpZD0iU1ZHSURfNl8iPiYjeGE7CQkJPHVzZSB4bGluazpocmVmPSIjU1ZHSURfNV8iIHN0eWxlPSJvdmVyZmxvdzp2aXNpYmxlIiBpZD0idXNlNjA4NjMiIHg9IjAiIHk9IjAiIHdpZHRoPSIxMDAlIiBoZWlnaHQ9IjEwMCUiLz4mI3hhOwkJPC9jbGlwUGF0aD4mI3hhOwkJPHBhdGggc3R5bGU9ImZpbGw6I2ViNjAyMiIgZD0ibSAzNTEuMzUsMjE5LjM2IGMgMCwxLjIgLTAuOTYsMi4xNiAtMi4xNiwyLjE2IGggLTIuODggYyAtMS4yLDAgLTIuMTYsLTAuOTYgLTIuMTYsLTIuMTYgdiAtMi44OCBjIDAsLTEuMiAwLjk2LC0yLjE2IDIuMTYsLTIuMTYgaCAyLjg4IGMgMS4yLDAgMi4xNiwwLjk2IDIuMTYsMi4xNiB6IG0gNS43NSwtMTIuMjIgaCAtMTEuNSBjIC0wLjc4LDAgLTEuNDQsLTAuNjYgLTEuNDQsLTEuNDQgdiAtMTEuNSBjIDAsLTAuNzggLTAuNjYsLTEuNDQgLTEuNDQsLTEuNDQgaCAtNC4zMSBjIC0wLjc4LDAgLTEuNDQsMC42NiAtMS40NCwxLjQ0IHYgMTEuNSBjIDAsMC43OCAtMC42NiwxLjQ0IC0xLjQ0LDEuNDQgaCAtNC4zMSBjIC0wLjc4LDAgLTEuNDQsLTAuNjYgLTEuNDQsLTEuNDQgdiAtMTEuNSBjIDAsLTAuNzggLTAuNjYsLTEuNDQgLTEuNDQsLTEuNDQgaCAtNC4zMSBjIC0wLjc4LDAgLTEuNDQsMC42NiAtMS40NCwxLjQ0IHYgMzMuMDcgYyAwLDAuNzggMC42NiwxLjQ0IDEuNDQsMS40NCBoIDMzLjA3IGMgMC43OCwwIDEuNDQsLTAuNjYgMS40NCwtMS40NCB2IC0xOC42OSBjIDAsLTAuNzkgLTAuNjYsLTEuNDQgLTEuNDQsLTEuNDQiIGNsaXAtcGF0aD0idXJsKCNTVkdJRF82XykiIGlkPSJwYXRoNjA4NjYiIGlua3NjYXBlOmNvbm5lY3Rvci1jdXJ2YXR1cmU9IjAiLz4mI3hhOwk8L2c+JiN4YTs8L2c+JiN4YTs8L3N2Zz4=;" parent="1" vertex="1">
          <mxGeometry x="629.5" y="532" width="36" height="36" as="geometry" />
        </mxCell>
        <mxCell id="J_od48V6ICS7nhq_06Tz-9" value="RabbitMQ" style="shape=image;verticalLabelPosition=bottom;labelBackgroundColor=#ffffff;verticalAlign=top;aspect=fixed;imageAspect=0;image=data:image/svg+xml,PHN2ZyB4bWxuczpkYz0iaHR0cDovL3B1cmwub3JnL2RjL2VsZW1lbnRzLzEuMS8iIHhtbG5zOmNjPSJodHRwOi8vY3JlYXRpdmVjb21tb25zLm9yZy9ucyMiIHhtbG5zOnJkZj0iaHR0cDovL3d3dy53My5vcmcvMTk5OS8wMi8yMi1yZGYtc3ludGF4LW5zIyIgeG1sbnM6c3ZnPSJodHRwOi8vd3d3LnczLm9yZy8yMDAwL3N2ZyIgeG1sbnM9Imh0dHA6Ly93d3cudzMub3JnLzIwMDAvc3ZnIiB4bWxuczp4bGluaz0iaHR0cDovL3d3dy53My5vcmcvMTk5OS94bGluayIgeG1sbnM6c29kaXBvZGk9Imh0dHA6Ly9zb2RpcG9kaS5zb3VyY2Vmb3JnZS5uZXQvRFREL3NvZGlwb2RpLTAuZHRkIiB4bWxuczppbmtzY2FwZT0iaHR0cDovL3d3dy5pbmtzY2FwZS5vcmcvbmFtZXNwYWNlcy9pbmtzY2FwZSIgdmVyc2lvbj0iMS4xIiBpZD0iTGF5ZXJfMSIgeD0iMHB4IiB5PSIwcHgiIHZpZXdCb3g9IjAgMCAzNS45Mzk5OTUgMzUuOTUwMDAxIiB4bWw6c3BhY2U9InByZXNlcnZlIiBzb2RpcG9kaTpkb2NuYW1lPSJzYXBfc2VfcmFiYml0bXEuc3ZnIiB3aWR0aD0iMzUuOTM5OTk1IiBoZWlnaHQ9IjM1Ljk1MDAwMSIgaW5rc2NhcGU6dmVyc2lvbj0iMC45Mi4zICgyNDA1NTQ2LCAyMDE4LTAzLTExKSI+PG1ldGFkYXRhIGlkPSJtZXRhZGF0YTYwODc3Ij48cmRmOlJERj48Y2M6V29yayByZGY6YWJvdXQ9IiI+PGRjOmZvcm1hdD5pbWFnZS9zdmcreG1sPC9kYzpmb3JtYXQ+PGRjOnR5cGUgcmRmOnJlc291cmNlPSJodHRwOi8vcHVybC5vcmcvZGMvZGNtaXR5cGUvU3RpbGxJbWFnZSIvPjxkYzp0aXRsZS8+PC9jYzpXb3JrPjwvcmRmOlJERj48L21ldGFkYXRhPjxkZWZzIGlkPSJkZWZzNjA4NzUiLz48c29kaXBvZGk6bmFtZWR2aWV3IHBhZ2Vjb2xvcj0iI2ZmZmZmZiIgYm9yZGVyY29sb3I9IiM2NjY2NjYiIGJvcmRlcm9wYWNpdHk9IjEiIG9iamVjdHRvbGVyYW5jZT0iMTAiIGdyaWR0b2xlcmFuY2U9IjEwIiBndWlkZXRvbGVyYW5jZT0iMTAiIGlua3NjYXBlOnBhZ2VvcGFjaXR5PSIwIiBpbmtzY2FwZTpwYWdlc2hhZG93PSIyIiBpbmtzY2FwZTp3aW5kb3ctd2lkdGg9IjE5MjAiIGlua3NjYXBlOndpbmRvdy1oZWlnaHQ9IjEwMTciIGlkPSJuYW1lZHZpZXc2MDg3MyIgc2hvd2dyaWQ9ImZhbHNlIiBmaXQtbWFyZ2luLXRvcD0iMCIgZml0LW1hcmdpbi1sZWZ0PSIwIiBmaXQtbWFyZ2luLXJpZ2h0PSIwIiBmaXQtbWFyZ2luLWJvdHRvbT0iMCIgaW5rc2NhcGU6em9vbT0iMS4wMzAzMDMiIGlua3NjYXBlOmN4PSItMjUuMjI1MDA2IiBpbmtzY2FwZTpjeT0iLTE5Mi4wNCIgaW5rc2NhcGU6d2luZG93LXg9Ii04IiBpbmtzY2FwZTp3aW5kb3cteT0iLTgiIGlua3NjYXBlOndpbmRvdy1tYXhpbWl6ZWQ9IjEiIGlua3NjYXBlOmN1cnJlbnQtbGF5ZXI9IkxheWVyXzEiLz4mI3hhOyYjeGE7PGcgaWQ9Imc2MDg3MCIgdHJhbnNmb3JtPSJ0cmFuc2xhdGUoLTMyMi42MDAwMSwtMTkyLjc2KSI+JiN4YTsJPGRlZnMgaWQ9ImRlZnM2MDg1NSI+JiN4YTsJCTxyZWN0IGlkPSJTVkdJRF8zXyIgeD0iMzIyLjYwMDAxIiB5PSIxOTIuNzU5OTkiIHdpZHRoPSIzNi44MiIgaGVpZ2h0PSIzNi44MiIvPiYjeGE7CTwvZGVmcz4mI3hhOwk8Y2xpcFBhdGggaWQ9IlNWR0lEXzRfIj4mI3hhOwkJPHVzZSB4bGluazpocmVmPSIjU1ZHSURfM18iIHN0eWxlPSJvdmVyZmxvdzp2aXNpYmxlIiBpZD0idXNlNjA4NTciIHg9IjAiIHk9IjAiIHdpZHRoPSIxMDAlIiBoZWlnaHQ9IjEwMCUiLz4mI3hhOwk8L2NsaXBQYXRoPiYjeGE7CTxnIGNsaXAtcGF0aD0idXJsKCNTVkdJRF80XykiIGlkPSJnNjA4NjgiPiYjeGE7CQk8ZGVmcyBpZD0iZGVmczYwODYxIj4mI3hhOwkJCTxyZWN0IGlkPSJTVkdJRF81XyIgeD0iMzIyLjYwMDAxIiB5PSIxOTIuNzU5OTkiIHdpZHRoPSIzNi44MiIgaGVpZ2h0PSIzNi44MiIvPiYjeGE7CQk8L2RlZnM+JiN4YTsJCTxjbGlwUGF0aCBpZD0iU1ZHSURfNl8iPiYjeGE7CQkJPHVzZSB4bGluazpocmVmPSIjU1ZHSURfNV8iIHN0eWxlPSJvdmVyZmxvdzp2aXNpYmxlIiBpZD0idXNlNjA4NjMiIHg9IjAiIHk9IjAiIHdpZHRoPSIxMDAlIiBoZWlnaHQ9IjEwMCUiLz4mI3hhOwkJPC9jbGlwUGF0aD4mI3hhOwkJPHBhdGggc3R5bGU9ImZpbGw6I2ViNjAyMiIgZD0ibSAzNTEuMzUsMjE5LjM2IGMgMCwxLjIgLTAuOTYsMi4xNiAtMi4xNiwyLjE2IGggLTIuODggYyAtMS4yLDAgLTIuMTYsLTAuOTYgLTIuMTYsLTIuMTYgdiAtMi44OCBjIDAsLTEuMiAwLjk2LC0yLjE2IDIuMTYsLTIuMTYgaCAyLjg4IGMgMS4yLDAgMi4xNiwwLjk2IDIuMTYsMi4xNiB6IG0gNS43NSwtMTIuMjIgaCAtMTEuNSBjIC0wLjc4LDAgLTEuNDQsLTAuNjYgLTEuNDQsLTEuNDQgdiAtMTEuNSBjIDAsLTAuNzggLTAuNjYsLTEuNDQgLTEuNDQsLTEuNDQgaCAtNC4zMSBjIC0wLjc4LDAgLTEuNDQsMC42NiAtMS40NCwxLjQ0IHYgMTEuNSBjIDAsMC43OCAtMC42NiwxLjQ0IC0xLjQ0LDEuNDQgaCAtNC4zMSBjIC0wLjc4LDAgLTEuNDQsLTAuNjYgLTEuNDQsLTEuNDQgdiAtMTEuNSBjIDAsLTAuNzggLTAuNjYsLTEuNDQgLTEuNDQsLTEuNDQgaCAtNC4zMSBjIC0wLjc4LDAgLTEuNDQsMC42NiAtMS40NCwxLjQ0IHYgMzMuMDcgYyAwLDAuNzggMC42NiwxLjQ0IDEuNDQsMS40NCBoIDMzLjA3IGMgMC43OCwwIDEuNDQsLTAuNjYgMS40NCwtMS40NCB2IC0xOC42OSBjIDAsLTAuNzkgLTAuNjYsLTEuNDQgLTEuNDQsLTEuNDQiIGNsaXAtcGF0aD0idXJsKCNTVkdJRF82XykiIGlkPSJwYXRoNjA4NjYiIGlua3NjYXBlOmNvbm5lY3Rvci1jdXJ2YXR1cmU9IjAiLz4mI3hhOwk8L2c+JiN4YTs8L2c+JiN4YTs8L3N2Zz4=;" parent="1" vertex="1">
          <mxGeometry x="551.5" y="532" width="36" height="36" as="geometry" />
        </mxCell>
        <mxCell id="J_od48V6ICS7nhq_06Tz-10" value="RabbitMQ" style="shape=image;verticalLabelPosition=bottom;labelBackgroundColor=#ffffff;verticalAlign=top;aspect=fixed;imageAspect=0;image=data:image/svg+xml,PHN2ZyB4bWxuczpkYz0iaHR0cDovL3B1cmwub3JnL2RjL2VsZW1lbnRzLzEuMS8iIHhtbG5zOmNjPSJodHRwOi8vY3JlYXRpdmVjb21tb25zLm9yZy9ucyMiIHhtbG5zOnJkZj0iaHR0cDovL3d3dy53My5vcmcvMTk5OS8wMi8yMi1yZGYtc3ludGF4LW5zIyIgeG1sbnM6c3ZnPSJodHRwOi8vd3d3LnczLm9yZy8yMDAwL3N2ZyIgeG1sbnM9Imh0dHA6Ly93d3cudzMub3JnLzIwMDAvc3ZnIiB4bWxuczp4bGluaz0iaHR0cDovL3d3dy53My5vcmcvMTk5OS94bGluayIgeG1sbnM6c29kaXBvZGk9Imh0dHA6Ly9zb2RpcG9kaS5zb3VyY2Vmb3JnZS5uZXQvRFREL3NvZGlwb2RpLTAuZHRkIiB4bWxuczppbmtzY2FwZT0iaHR0cDovL3d3dy5pbmtzY2FwZS5vcmcvbmFtZXNwYWNlcy9pbmtzY2FwZSIgdmVyc2lvbj0iMS4xIiBpZD0iTGF5ZXJfMSIgeD0iMHB4IiB5PSIwcHgiIHZpZXdCb3g9IjAgMCAzNS45Mzk5OTUgMzUuOTUwMDAxIiB4bWw6c3BhY2U9InByZXNlcnZlIiBzb2RpcG9kaTpkb2NuYW1lPSJzYXBfc2VfcmFiYml0bXEuc3ZnIiB3aWR0aD0iMzUuOTM5OTk1IiBoZWlnaHQ9IjM1Ljk1MDAwMSIgaW5rc2NhcGU6dmVyc2lvbj0iMC45Mi4zICgyNDA1NTQ2LCAyMDE4LTAzLTExKSI+PG1ldGFkYXRhIGlkPSJtZXRhZGF0YTYwODc3Ij48cmRmOlJERj48Y2M6V29yayByZGY6YWJvdXQ9IiI+PGRjOmZvcm1hdD5pbWFnZS9zdmcreG1sPC9kYzpmb3JtYXQ+PGRjOnR5cGUgcmRmOnJlc291cmNlPSJodHRwOi8vcHVybC5vcmcvZGMvZGNtaXR5cGUvU3RpbGxJbWFnZSIvPjxkYzp0aXRsZS8+PC9jYzpXb3JrPjwvcmRmOlJERj48L21ldGFkYXRhPjxkZWZzIGlkPSJkZWZzNjA4NzUiLz48c29kaXBvZGk6bmFtZWR2aWV3IHBhZ2Vjb2xvcj0iI2ZmZmZmZiIgYm9yZGVyY29sb3I9IiM2NjY2NjYiIGJvcmRlcm9wYWNpdHk9IjEiIG9iamVjdHRvbGVyYW5jZT0iMTAiIGdyaWR0b2xlcmFuY2U9IjEwIiBndWlkZXRvbGVyYW5jZT0iMTAiIGlua3NjYXBlOnBhZ2VvcGFjaXR5PSIwIiBpbmtzY2FwZTpwYWdlc2hhZG93PSIyIiBpbmtzY2FwZTp3aW5kb3ctd2lkdGg9IjE5MjAiIGlua3NjYXBlOndpbmRvdy1oZWlnaHQ9IjEwMTciIGlkPSJuYW1lZHZpZXc2MDg3MyIgc2hvd2dyaWQ9ImZhbHNlIiBmaXQtbWFyZ2luLXRvcD0iMCIgZml0LW1hcmdpbi1sZWZ0PSIwIiBmaXQtbWFyZ2luLXJpZ2h0PSIwIiBmaXQtbWFyZ2luLWJvdHRvbT0iMCIgaW5rc2NhcGU6em9vbT0iMS4wMzAzMDMiIGlua3NjYXBlOmN4PSItMjUuMjI1MDA2IiBpbmtzY2FwZTpjeT0iLTE5Mi4wNCIgaW5rc2NhcGU6d2luZG93LXg9Ii04IiBpbmtzY2FwZTp3aW5kb3cteT0iLTgiIGlua3NjYXBlOndpbmRvdy1tYXhpbWl6ZWQ9IjEiIGlua3NjYXBlOmN1cnJlbnQtbGF5ZXI9IkxheWVyXzEiLz4mI3hhOyYjeGE7PGcgaWQ9Imc2MDg3MCIgdHJhbnNmb3JtPSJ0cmFuc2xhdGUoLTMyMi42MDAwMSwtMTkyLjc2KSI+JiN4YTsJPGRlZnMgaWQ9ImRlZnM2MDg1NSI+JiN4YTsJCTxyZWN0IGlkPSJTVkdJRF8zXyIgeD0iMzIyLjYwMDAxIiB5PSIxOTIuNzU5OTkiIHdpZHRoPSIzNi44MiIgaGVpZ2h0PSIzNi44MiIvPiYjeGE7CTwvZGVmcz4mI3hhOwk8Y2xpcFBhdGggaWQ9IlNWR0lEXzRfIj4mI3hhOwkJPHVzZSB4bGluazpocmVmPSIjU1ZHSURfM18iIHN0eWxlPSJvdmVyZmxvdzp2aXNpYmxlIiBpZD0idXNlNjA4NTciIHg9IjAiIHk9IjAiIHdpZHRoPSIxMDAlIiBoZWlnaHQ9IjEwMCUiLz4mI3hhOwk8L2NsaXBQYXRoPiYjeGE7CTxnIGNsaXAtcGF0aD0idXJsKCNTVkdJRF80XykiIGlkPSJnNjA4NjgiPiYjeGE7CQk8ZGVmcyBpZD0iZGVmczYwODYxIj4mI3hhOwkJCTxyZWN0IGlkPSJTVkdJRF81XyIgeD0iMzIyLjYwMDAxIiB5PSIxOTIuNzU5OTkiIHdpZHRoPSIzNi44MiIgaGVpZ2h0PSIzNi44MiIvPiYjeGE7CQk8L2RlZnM+JiN4YTsJCTxjbGlwUGF0aCBpZD0iU1ZHSURfNl8iPiYjeGE7CQkJPHVzZSB4bGluazpocmVmPSIjU1ZHSURfNV8iIHN0eWxlPSJvdmVyZmxvdzp2aXNpYmxlIiBpZD0idXNlNjA4NjMiIHg9IjAiIHk9IjAiIHdpZHRoPSIxMDAlIiBoZWlnaHQ9IjEwMCUiLz4mI3hhOwkJPC9jbGlwUGF0aD4mI3hhOwkJPHBhdGggc3R5bGU9ImZpbGw6I2ViNjAyMiIgZD0ibSAzNTEuMzUsMjE5LjM2IGMgMCwxLjIgLTAuOTYsMi4xNiAtMi4xNiwyLjE2IGggLTIuODggYyAtMS4yLDAgLTIuMTYsLTAuOTYgLTIuMTYsLTIuMTYgdiAtMi44OCBjIDAsLTEuMiAwLjk2LC0yLjE2IDIuMTYsLTIuMTYgaCAyLjg4IGMgMS4yLDAgMi4xNiwwLjk2IDIuMTYsMi4xNiB6IG0gNS43NSwtMTIuMjIgaCAtMTEuNSBjIC0wLjc4LDAgLTEuNDQsLTAuNjYgLTEuNDQsLTEuNDQgdiAtMTEuNSBjIDAsLTAuNzggLTAuNjYsLTEuNDQgLTEuNDQsLTEuNDQgaCAtNC4zMSBjIC0wLjc4LDAgLTEuNDQsMC42NiAtMS40NCwxLjQ0IHYgMTEuNSBjIDAsMC43OCAtMC42NiwxLjQ0IC0xLjQ0LDEuNDQgaCAtNC4zMSBjIC0wLjc4LDAgLTEuNDQsLTAuNjYgLTEuNDQsLTEuNDQgdiAtMTEuNSBjIDAsLTAuNzggLTAuNjYsLTEuNDQgLTEuNDQsLTEuNDQgaCAtNC4zMSBjIC0wLjc4LDAgLTEuNDQsMC42NiAtMS40NCwxLjQ0IHYgMzMuMDcgYyAwLDAuNzggMC42NiwxLjQ0IDEuNDQsMS40NCBoIDMzLjA3IGMgMC43OCwwIDEuNDQsLTAuNjYgMS40NCwtMS40NCB2IC0xOC42OSBjIDAsLTAuNzkgLTAuNjYsLTEuNDQgLTEuNDQsLTEuNDQiIGNsaXAtcGF0aD0idXJsKCNTVkdJRF82XykiIGlkPSJwYXRoNjA4NjYiIGlua3NjYXBlOmNvbm5lY3Rvci1jdXJ2YXR1cmU9IjAiLz4mI3hhOwk8L2c+JiN4YTs8L2c+JiN4YTs8L3N2Zz4=;" parent="1" vertex="1">
          <mxGeometry x="479.5" y="532" width="36" height="36" as="geometry" />
        </mxCell>
        <mxCell id="J_od48V6ICS7nhq_06Tz-11" value="HAProxy" style="sketch=0;pointerEvents=1;shadow=0;dashed=0;html=1;strokeColor=none;fillColor=#505050;labelPosition=right;verticalLabelPosition=middle;verticalAlign=middle;outlineConnect=0;align=left;shape=mxgraph.office.servers.reverse_proxy;" parent="1" vertex="1">
          <mxGeometry x="552" y="450" width="41" height="53" as="geometry" />
        </mxCell>
        <mxCell id="J_od48V6ICS7nhq_06Tz-12" value="" style="shape=datastore;whiteSpace=wrap;html=1;" parent="1" vertex="1">
          <mxGeometry x="760" y="206" width="60" height="60" as="geometry" />
        </mxCell>
        <mxCell id="J_od48V6ICS7nhq_06Tz-14" value="" style="shape=datastore;whiteSpace=wrap;html=1;" parent="1" vertex="1">
          <mxGeometry x="770" y="216" width="60" height="60" as="geometry" />
        </mxCell>
        <mxCell id="J_od48V6ICS7nhq_06Tz-15" value="ScyllaDB cluster" style="shape=datastore;whiteSpace=wrap;html=1;labelPosition=center;verticalLabelPosition=bottom;align=center;verticalAlign=top;" parent="1" vertex="1">
          <mxGeometry x="780" y="226" width="60" height="60" as="geometry" />
        </mxCell>
        <mxCell id="J_od48V6ICS7nhq_06Tz-16" value="Vue.js" style="outlineConnect=0;dashed=0;verticalLabelPosition=bottom;verticalAlign=top;align=center;html=1;shape=mxgraph.aws3.android;fillColor=#8CC64F;gradientColor=none;aspect=fixed;" parent="1" vertex="1">
          <mxGeometry x="320" y="120" width="52.5" height="60" as="geometry" />
        </mxCell>
        <mxCell id="J_od48V6ICS7nhq_06Tz-19" value="" style="endArrow=classic;html=1;rounded=0;" parent="1" source="J_od48V6ICS7nhq_06Tz-1" target="J_od48V6ICS7nhq_06Tz-2" edge="1">
          <mxGeometry width="50" height="50" relative="1" as="geometry">
            <mxPoint x="60" y="110" as="sourcePoint" />
            <mxPoint x="110" y="60" as="targetPoint" />
          </mxGeometry>
        </mxCell>
        <mxCell id="J_od48V6ICS7nhq_06Tz-20" value="" style="endArrow=classic;html=1;rounded=0;" parent="1" source="J_od48V6ICS7nhq_06Tz-2" target="J_od48V6ICS7nhq_06Tz-16" edge="1">
          <mxGeometry width="50" height="50" relative="1" as="geometry">
            <mxPoint x="80" y="160" as="sourcePoint" />
            <mxPoint x="130" y="110" as="targetPoint" />
          </mxGeometry>
        </mxCell>
        <mxCell id="J_od48V6ICS7nhq_06Tz-21" value="" style="endArrow=classic;html=1;rounded=0;" parent="1" source="J_od48V6ICS7nhq_06Tz-2" target="J_od48V6ICS7nhq_06Tz-5" edge="1">
          <mxGeometry width="50" height="50" relative="1" as="geometry">
            <mxPoint x="291" y="224" as="sourcePoint" />
            <mxPoint x="330" y="186" as="targetPoint" />
          </mxGeometry>
        </mxCell>
        <mxCell id="J_od48V6ICS7nhq_06Tz-22" value="" style="endArrow=classic;html=1;rounded=0;" parent="1" source="J_od48V6ICS7nhq_06Tz-2" target="J_od48V6ICS7nhq_06Tz-6" edge="1">
          <mxGeometry width="50" height="50" relative="1" as="geometry">
            <mxPoint x="291" y="243" as="sourcePoint" />
            <mxPoint x="330" y="244" as="targetPoint" />
          </mxGeometry>
        </mxCell>
        <mxCell id="J_od48V6ICS7nhq_06Tz-23" value="" style="endArrow=classic;html=1;rounded=0;" parent="1" source="J_od48V6ICS7nhq_06Tz-5" target="J_od48V6ICS7nhq_06Tz-7" edge="1">
          <mxGeometry width="50" height="50" relative="1" as="geometry">
            <mxPoint x="540" y="160" as="sourcePoint" />
            <mxPoint x="590" y="110" as="targetPoint" />
          </mxGeometry>
        </mxCell>
        <mxCell id="J_od48V6ICS7nhq_06Tz-24" value="" style="endArrow=classic;html=1;rounded=0;" parent="1" source="J_od48V6ICS7nhq_06Tz-7" target="J_od48V6ICS7nhq_06Tz-12" edge="1">
          <mxGeometry width="50" height="50" relative="1" as="geometry">
            <mxPoint x="700" y="100" as="sourcePoint" />
            <mxPoint x="770" y="80" as="targetPoint" />
          </mxGeometry>
        </mxCell>
        <mxCell id="J_od48V6ICS7nhq_06Tz-25" value="" style="endArrow=classic;html=1;rounded=0;" parent="1" source="J_od48V6ICS7nhq_06Tz-6" target="J_od48V6ICS7nhq_06Tz-7" edge="1">
          <mxGeometry width="50" height="50" relative="1" as="geometry">
            <mxPoint x="620" y="110" as="sourcePoint" />
            <mxPoint x="670" y="60" as="targetPoint" />
          </mxGeometry>
        </mxCell>
        <mxCell id="J_od48V6ICS7nhq_06Tz-26" value="Publish" style="endArrow=classic;html=1;rounded=0;" parent="1" source="J_od48V6ICS7nhq_06Tz-7" target="J_od48V6ICS7nhq_06Tz-11" edge="1">
          <mxGeometry width="50" height="50" relative="1" as="geometry">
            <mxPoint x="640" y="350" as="sourcePoint" />
            <mxPoint x="690" y="300" as="targetPoint" />
          </mxGeometry>
        </mxCell>
        <mxCell id="J_od48V6ICS7nhq_06Tz-27" value="" style="endArrow=classic;html=1;rounded=0;" parent="1" source="J_od48V6ICS7nhq_06Tz-11" target="J_od48V6ICS7nhq_06Tz-8" edge="1">
          <mxGeometry width="50" height="50" relative="1" as="geometry">
            <mxPoint x="260" y="530" as="sourcePoint" />
            <mxPoint x="310" y="480" as="targetPoint" />
          </mxGeometry>
        </mxCell>
        <mxCell id="J_od48V6ICS7nhq_06Tz-28" value="" style="endArrow=classic;html=1;rounded=0;" parent="1" source="J_od48V6ICS7nhq_06Tz-11" target="J_od48V6ICS7nhq_06Tz-9" edge="1">
          <mxGeometry width="50" height="50" relative="1" as="geometry">
            <mxPoint x="340" y="520" as="sourcePoint" />
            <mxPoint x="390" y="470" as="targetPoint" />
          </mxGeometry>
        </mxCell>
        <mxCell id="J_od48V6ICS7nhq_06Tz-29" value="" style="endArrow=classic;html=1;rounded=0;" parent="1" source="J_od48V6ICS7nhq_06Tz-11" target="J_od48V6ICS7nhq_06Tz-10" edge="1">
          <mxGeometry width="50" height="50" relative="1" as="geometry">
            <mxPoint x="340" y="520" as="sourcePoint" />
            <mxPoint x="390" y="470" as="targetPoint" />
          </mxGeometry>
        </mxCell>
        <mxCell id="J_od48V6ICS7nhq_06Tz-30" value="Subscribe" style="endArrow=classic;html=1;rounded=0;" parent="1" source="J_od48V6ICS7nhq_06Tz-6" target="J_od48V6ICS7nhq_06Tz-11" edge="1">
          <mxGeometry width="50" height="50" relative="1" as="geometry">
            <mxPoint x="400" y="480" as="sourcePoint" />
            <mxPoint x="350" y="530" as="targetPoint" />
          </mxGeometry>
        </mxCell>
        <mxCell id="J_od48V6ICS7nhq_06Tz-31" value="Subscribe" style="endArrow=classic;html=1;rounded=0;" parent="1" source="J_od48V6ICS7nhq_06Tz-5" target="J_od48V6ICS7nhq_06Tz-11" edge="1">
          <mxGeometry width="50" height="50" relative="1" as="geometry">
            <mxPoint x="300" y="460" as="sourcePoint" />
            <mxPoint x="250" y="510" as="targetPoint" />
          </mxGeometry>
        </mxCell>
      </root>
    </mxGraphModel>
  </diagram>
</mxfile>
